<svg width="36" height="25" viewBox="0 0 36 25" fill="none" xmlns="http://www.w3.org/2000/svg">
<path d="M9.46875 4.375L3.96875 24H0L7.21875 1.25H9.6875L9.46875 4.375ZM13.8594 24L8.34375 4.375L8.07812 1.25H10.5938L17.8438 24H13.8594ZM13.9531 15.5469V18.7344H3.35938V15.5469H13.9531ZM31.2812 16.5781H35.0625C34.9896 18.224 34.6562 19.625 34.0625 20.7812C33.4688 21.9271 32.6146 22.8021 31.5 23.4062C30.3958 24.0104 29.0469 24.3125 27.4531 24.3125C26.2448 24.3125 25.1615 24.0938 24.2031 23.6562C23.2552 23.2188 22.4479 22.5885 21.7812 21.7656C21.1146 20.9323 20.6042 19.9167 20.25 18.7188C19.9062 17.5208 19.7344 16.1615 19.7344 14.6406V10.6094C19.7344 9.08854 19.9115 7.72917 20.2656 6.53125C20.6302 5.33333 21.151 4.31771 21.8281 3.48438C22.5052 2.65104 23.3281 2.02083 24.2969 1.59375C25.276 1.15625 26.3802 0.9375 27.6094 0.9375C29.1823 0.9375 30.5052 1.23958 31.5781 1.84375C32.651 2.44792 33.4792 3.33333 34.0625 4.5C34.6458 5.66667 34.9844 7.08854 35.0781 8.76562H31.2969C31.2448 7.63021 31.0885 6.72396 30.8281 6.04688C30.5781 5.35938 30.1927 4.86458 29.6719 4.5625C29.1615 4.26042 28.474 4.10938 27.6094 4.10938C26.8906 4.10938 26.2708 4.24479 25.75 4.51562C25.2396 4.78646 24.8177 5.19271 24.4844 5.73438C24.1615 6.26562 23.9167 6.9375 23.75 7.75C23.5938 8.55208 23.5156 9.49479 23.5156 10.5781V14.6406C23.5156 15.6823 23.5833 16.6042 23.7188 17.4062C23.8542 18.2083 24.0729 18.8906 24.375 19.4531C24.6771 20.0052 25.0781 20.4271 25.5781 20.7188C26.0781 21 26.7031 21.1406 27.4531 21.1406C28.349 21.1406 29.0625 21 29.5938 20.7188C30.1354 20.4375 30.5365 19.9635 30.7969 19.2969C31.0573 18.6302 31.2188 17.724 31.2812 16.5781Z" fill="white"/>
</svg>
